<?xml version="1.0" encoding="UTF-8"?>
<!DOCTYPE svg PUBLIC "-//W3C//DTD SVG 1.1//EN" "http://www.w3.org/Graphics/SVG/1.1/DTD/svg11.dtd">
<!-- Creator: CorelDRAW 2017 -->
<svg xmlns="http://www.w3.org/2000/svg" xml:space="preserve" width="18.5in" height="12.5in" version="1.1" style="shape-rendering:geometricPrecision; text-rendering:geometricPrecision; image-rendering:optimizeQuality; fill-rule:evenodd; clip-rule:evenodd"
viewBox="0 0 185000 125000"
 xmlns:xlink="http://www.w3.org/1999/xlink">
 <defs>
  <style type="text/css">
   <![CDATA[
    .fil0 {fill:none;fill-rule:nonzero}
    .fil3 {fill:#FEFEFE;fill-rule:nonzero}
    .fil2 {fill:#373435;fill-rule:nonzero}
    .fil1 {fill:#B13437;fill-rule:nonzero}
   ]]>
  </style>
 </defs>
 <g id="Layer_x0020_1">
  <metadata id="CorelCorpID_0Corel-Layer"/>
  <polygon class="fil0" points="147500,76249.3 37500,76249.3 37500,48750.7 147500,48750.7 "/>
  <polygon class="fil1" points="141848.1,71635.9 91270.9,71635.9 91270.9,52268.9 141848.1,52268.9 "/>
  <path class="fil2" d="M49345.2 63571.2c0,681.7 -128.7,1319.6 -386.2,1916.5 -257.5,596.9 -605.7,1117.7 -1050.4,1559.5 -441.8,444.8 -962.6,793 -1559.5,1050.4 -596.9,257.5 -1234.7,386.2 -1916.5,386.2 -409.6,0 -822.2,-52.7 -1231.8,-155.1l0 -2639.2c181.4,108.3 377.4,190.2 591,248.7 210.7,55.6 424.3,84.9 640.8,84.9 339.4,0 658.3,-64.4 956.8,-193.1 301.3,-128.8 561.8,-304.3 784.1,-526.7 222.4,-222.4 398,-482.8 526.7,-781.2 128.7,-295.5 193.1,-614.4 193.1,-950.9l0 -7379.3 2451.9 0 0 7379.3zm8502.8 3841.8c-187.2,169.7 -389.1,333.6 -602.8,482.8 -213.6,152.1 -438.9,283.8 -673,395 -234.1,111.2 -476.9,199 -725.6,266.3 -248.7,64.4 -500.4,99.5 -757.8,99.5 -564.7,0 -1097.2,-102.4 -1594.6,-301.4 -497.4,-199 -933.4,-485.7 -1307.9,-851.5 -374.5,-368.7 -667.1,-819.3 -880.7,-1345.9 -216.5,-529.6 -321.9,-1123.5 -321.9,-1779l0 -5076.5 2332 0 0 5076.5c0,307.2 46.8,582.3 140.4,825.1 93.6,242.9 222.4,447.7 380.4,614.4 160.9,163.9 348.2,289.7 561.8,377.4 213.6,84.9 444.7,128.7 690.5,128.7 239.9,0 468.1,-55.6 681.7,-166.8 213.6,-114.1 400.9,-260.4 561.8,-441.8 160.9,-184.3 286.7,-392.1 377.4,-623.2 90.7,-231.1 137.5,-468.1 137.5,-713.9l0 -5076.5 2337.8 0 0 9181.7 -564.7 0 -772.4 -1070.9zm8160.5 1070.9l-5348.6 0 0 -2332 5348.6 0c160.9,0 298.5,-55.6 412.6,-169.7 114.1,-117 172.6,-251.6 172.6,-412.6 0,-166.8 -58.5,-275 -172.6,-324.8 -114.1,-52.7 -251.6,-79 -412.6,-79l-2434.4 0c-403.8,0 -784.1,-76.1 -1138.2,-231.1 -354,-155.1 -664.2,-362.8 -927.5,-629.1 -263.3,-266.3 -468.1,-576.4 -620.3,-930.4 -152.1,-354.1 -228.2,-734.4 -228.2,-1141.1 0,-403.8 76.1,-784.1 228.2,-1138.2 152.2,-354.1 357,-664.2 620.3,-927.5 263.3,-263.3 573.5,-468.1 927.5,-620.3 354.1,-152.1 734.4,-228.2 1138.2,-228.2l4740 0 0 2332 -4740 0c-158,0 -295.5,58.5 -409.6,172.6 -114.1,114.1 -172.6,251.6 -172.6,409.6 0,166.8 58.5,307.2 172.6,424.3 114.1,117 251.6,175.6 409.6,175.6l2434.4 0c400.9,0 778.3,67.3 1132.3,201.9 354.1,134.6 664.2,321.9 927.6,561.8 260.4,239.9 471.1,529.6 623.2,866.1 155.1,336.5 231.1,705.2 231.1,1106 0,406.7 -76.1,784.2 -231.1,1135.3 -152.2,351.1 -362.8,661.3 -623.2,924.6 -263.3,266.3 -573.5,476.9 -927.6,626.1 -354,152.2 -731.5,228.2 -1132.3,228.2zm8763.2 0c-564.7,0 -1097.2,-108.3 -1594.6,-321.9 -497.4,-213.6 -933.3,-509.1 -1307.9,-883.6 -374.5,-374.5 -667.1,-810.5 -883.7,-1305 -213.6,-497.4 -318.9,-1029.9 -318.9,-1594.6l0 -2727 -1141.1 0 0 -2332 1141.1 0 0 -3669.1 2332 0 0 3669.1 3546.3 0 0 2332 -3546.3 0 0 2727c0,245.8 43.9,474 134.6,690.6 93.6,213.6 219.4,400.8 377.4,558.8 160.9,160.9 348.2,289.7 567.6,383.3 216.5,93.7 447.7,140.5 693.4,140.5l1773.1 0 0 2332 -1773.1 0zm5442.3 0l-2355.4 0 0 -12833.2 2355.4 0 0 12833.2zm4122.6 0l-2337.8 0 0 -9181.7 564.7 0 772.4 892.4c377.4,-342.4 804.6,-608.6 1281.6,-793 476.9,-184.3 974.3,-278 1495.2,-278 558.9,0 1088.5,105.3 1585.9,321.9 497.4,213.6 930.5,506.2 1302,880.7 371.6,374.5 664.2,813.4 880.7,1313.7 213.6,500.4 318.9,1032.9 318.9,1597.6l0 5246.2 -2337.8 0 0 -5246.2c0,-239.9 -46.8,-468.1 -137.5,-681.8 -93.6,-213.6 -216.5,-400.8 -377.4,-561.8 -160.9,-158 -345.3,-283.8 -558.9,-377.4 -210.7,-90.7 -436,-137.5 -675.9,-137.5 -245.8,0 -476.9,46.8 -693.5,137.5 -219.4,93.6 -406.7,219.4 -567.6,377.4 -158,160.9 -283.8,348.2 -377.5,561.8 -90.7,213.6 -137.5,441.9 -137.5,681.8l0 5246.2z"/>
  <path class="fil3" d="M103209.9 67222.8c-570.6,491.6 -1211.3,869 -1919.4,1132.4 -708.1,263.3 -1442.5,395 -2203.3,395 -582.2,0 -1144.1,-76.1 -1685.4,-228.2 -538.3,-152.1 -1044.6,-365.7 -1515.6,-643.7 -471.1,-275 -901.2,-608.6 -1290.4,-997.8 -389.1,-389.1 -722.7,-819.3 -1000.7,-1290.4 -275,-471.1 -488.6,-977.2 -640.8,-1515.6 -152.1,-541.3 -228.2,-1103.1 -228.2,-1685.4 0,-582.2 76.1,-1147 228.2,-1688.3 152.2,-544.2 365.7,-1050.4 640.8,-1521.5 278,-471.1 611.5,-901.2 1000.7,-1290.4 389.2,-389.1 819.3,-722.7 1290.4,-997.8 471.1,-278 977.3,-491.5 1515.6,-643.7 541.3,-152.1 1103.1,-228.2 1685.4,-228.2 760.7,0 1495.2,131.7 2203.3,389.2 708.1,260.4 1348.9,640.8 1919.4,1138.2l-1302 2141.8c-359.9,-389.2 -787.1,-687.6 -1278.7,-895.4 -491.5,-207.8 -1003.6,-313.1 -1542,-313.1 -544.2,0 -1050.4,102.4 -1524.4,307.2 -476.9,207.8 -889.5,485.7 -1243.5,836.9 -354,351.1 -634.9,766.6 -839.7,1243.5 -207.8,476.9 -310.2,983.1 -310.2,1521.5 0,538.4 102.4,1041.7 310.2,1512.7 204.8,471.1 485.7,883.7 839.7,1237.7 354.1,357 766.6,634.9 1243.5,842.7 474,204.8 980.2,307.2 1524.4,307.2 538.4,0 1050.4,-105.4 1542,-313.1 491.6,-207.7 918.8,-506.2 1278.7,-895.3l1302 2141.8zm3531.6 1261.1l-2355.4 0 0 -12833.2 2355.4 0 0 12833.2zm4544 -11674.5c0,216.5 -40.9,418.4 -122.9,608.6 -84.8,187.2 -196,351.1 -339.4,491.6 -143.4,140.4 -310.2,251.6 -503.3,333.5 -190.2,84.8 -395,125.8 -611.5,125.8 -216.5,0 -421.3,-41 -611.5,-125.8 -193.1,-81.9 -359.9,-193.1 -497.4,-333.5 -140.4,-140.5 -251.6,-304.3 -336.5,-491.6 -81.9,-190.2 -122.9,-392.1 -122.9,-608.6 0,-213.6 41,-412.6 122.9,-605.7 84.8,-190.2 196,-356.9 336.5,-497.4 137.5,-140.4 304.3,-251.6 497.4,-333.5 190.2,-81.9 395,-122.9 611.5,-122.9 216.5,0 421.3,41 611.5,122.9 193.1,81.9 359.9,193.1 503.3,333.5 143.4,140.5 254.6,307.2 339.4,497.4 81.9,193.1 122.9,392.1 122.9,605.7zm-403.8 11674.5l-2355.4 0 0 -9181.7 2355.4 0 0 9181.7zm9807.8 -7355.8l-1714.6 1723.4c-84.8,-240 -201.9,-456.5 -351.1,-646.7 -149.2,-190.2 -316,-354.1 -503.3,-485.7 -184.3,-128.7 -386.2,-231.1 -602.7,-298.4 -216.5,-70.2 -438.9,-102.4 -670.1,-102.4 -318.9,0 -620.3,64.4 -904.1,196.1 -280.9,131.7 -526.7,316 -737.4,553 -207.7,237 -371.6,517.9 -491.5,845.6 -120,324.8 -181.4,684.7 -181.4,1079.7 0,318.9 61.5,620.3 181.4,898.3 120,280.9 283.8,526.7 491.5,737.3 210.7,213.6 456.5,377.5 737.4,497.4 283.8,120 585.2,181.4 904.1,181.4 231.2,0 450.6,-32.2 661.3,-93.7 210.7,-64.4 409.6,-155.1 596.9,-272.1 184.3,-117 351.1,-260.4 497.4,-427.2 143.4,-169.7 263.3,-357 354.1,-561.8l1714.6 1723.4c-216.5,307.2 -468.1,585.2 -749.1,830.9 -283.8,245.8 -591.1,453.5 -918.7,626.2 -327.7,169.7 -673,301.4 -1035.8,389.1 -362.8,87.8 -737.4,134.6 -1120.7,134.6 -643.7,0 -1252.3,-122.9 -1819.9,-365.7 -570.6,-242.9 -1065,-576.4 -1492.2,-997.8 -424.3,-424.3 -760.7,-918.7 -1006.5,-1483.5 -245.7,-564.7 -368.7,-1170.4 -368.7,-1817 0,-702.2 122.9,-1360.6 368.7,-1972.1 245.8,-611.5 582.3,-1144.1 1006.5,-1597.6 427.2,-456.5 921.7,-813.4 1492.2,-1076.8 567.6,-263.3 1176.2,-395 1819.9,-395 383.3,0 760.7,49.8 1129.4,146.3 368.7,96.6 719.8,237 1053.3,424.3 333.5,184.4 643.7,412.6 924.6,681.8 283.8,269.2 529.6,576.4 734.4,924.6zm3496.5 7355.8l-2355.4 0 0 -12833.2 2355.4 0 0 8093.2 3490.7 -4424.1 2691.9 0 -3043 3824.3 3043 5339.8 -2691.9 0 -1860.9 -3335.6 -1629.8 2162.3 0 1173.3zm12145.6 0l-5348.6 0 0 -2332 5348.6 0c160.9,0 298.5,-55.6 412.6,-169.7 114.1,-117 172.6,-251.6 172.6,-412.6 0,-166.8 -58.5,-275 -172.6,-324.8 -114.1,-52.7 -251.6,-79 -412.6,-79l-2434.4 0c-403.8,0 -784.1,-76.1 -1138.2,-231.1 -354,-155.1 -664.1,-362.8 -927.5,-629.1 -263.3,-266.3 -468.1,-576.4 -620.3,-930.4 -152.1,-354.1 -228.2,-734.4 -228.2,-1141.1 0,-403.8 76.1,-784.1 228.2,-1138.2 152.2,-354.1 357,-664.2 620.3,-927.5 263.3,-263.3 573.5,-468.1 927.5,-620.3 354.1,-152.1 734.4,-228.2 1138.2,-228.2l4740 0 0 2332 -4740 0c-158,0 -295.5,58.5 -409.6,172.6 -114.1,114.1 -172.6,251.6 -172.6,409.6 0,166.8 58.5,307.2 172.6,424.3 114.1,117 251.6,175.6 409.6,175.6l2434.4 0c400.9,0 778.3,67.3 1132.3,201.9 354.1,134.6 664.2,321.9 927.6,561.8 260.4,239.9 471.1,529.6 623.2,866.1 155.1,336.5 231.1,705.2 231.1,1106 0,406.7 -76.1,784.2 -231.1,1135.3 -152.2,351.1 -362.8,661.3 -623.2,924.6 -263.3,266.3 -573.5,476.9 -927.6,626.1 -354,152.2 -731.5,228.2 -1132.3,228.2z"/>
 </g>
</svg>
